<svg width="1112" height="167" fill="none" xmlns="http://www.w3.org/2000/svg"><path d="M32.4 164V10.8H0V2h74.8v8.8H43.2V164H32.4Zm81.413 0V2h39.2c9.6 0 16.933 1.8 22 5.4 5.2 3.467 8.733 8.267 10.6 14.4 2 6 3 12.733 3 20.2 0 6-.667 11.733-2 17.2-1.2 5.467-3.534 10.133-7 14-3.334 3.733-8.267 6.133-14.8 7.2l26 83.6h-10.8l-25.2-81.6h-30.2V164h-10.8Zm10.8-90h28c6.933 0 12.2-1.267 15.8-3.8 3.6-2.667 6.066-6.4 7.4-11.2 1.466-4.8 2.2-10.467 2.2-17 0-10.267-1.734-18.067-5.2-23.4-3.334-5.333-10.134-8-20.4-8h-27.8V74Zm110.962 90V2h10.8v162h-10.8Zm93.411 2c-8.533 0-15.6-1.733-21.2-5.2-5.467-3.467-9.667-8.333-12.6-14.6-2.8-6.267-4.533-13.667-5.2-22.2l9.4-3c.933 7.067 2.333 13.333 4.2 18.8 2 5.467 5 9.733 9 12.8 4 2.933 9.533 4.4 16.6 4.4 8 0 14.267-2 18.8-6 4.667-4 7-10.667 7-20 0-7.067-1.867-13.4-5.6-19-3.6-5.733-8.733-11.867-15.4-18.4l-29.6-29.4c-4.933-5.067-8.533-10.133-10.8-15.2-2.267-5.067-3.4-10.267-3.4-15.6 0-10.667 3.267-18.867 9.8-24.6 6.667-5.733 15.267-8.6 25.8-8.6 5.467 0 10.4.733 14.8 2.2 4.4 1.333 8.2 3.6 11.4 6.8 3.333 3.067 5.933 7.2 7.8 12.4s3.067 11.6 3.6 19.2l-9.2 2.2c-.533-7.6-1.8-13.933-3.8-19-2-5.067-4.933-8.8-8.8-11.2-3.867-2.533-9.067-3.8-15.6-3.8-7.333 0-13.467 1.867-18.4 5.6-4.933 3.733-7.4 9.733-7.4 18 0 4.133.8 8.133 2.4 12 1.733 3.867 4.867 8.067 9.4 12.6l29.2 28.8c6.533 6.4 12.133 13.267 16.8 20.6 4.8 7.2 7.2 15.133 7.2 23.8 0 8.133-1.533 14.867-4.6 20.2-3.067 5.2-7.333 9.067-12.8 11.6-5.467 2.533-11.733 3.8-18.8 3.8Zm114.03.2c-10.667 0-18.867-2.2-24.6-6.6-5.6-4.4-9.467-10.267-11.6-17.6-2.134-7.467-3.2-15.667-3.2-24.6V48.6c0-9.333 1.133-17.6 3.4-24.8 2.266-7.333 6.266-13.067 12-17.2 5.733-4.267 13.733-6.4 24-6.4 9.466 0 16.866 1.867 22.2 5.6 5.333 3.733 9.133 9.067 11.4 16 2.266 6.8 3.4 14.8 3.4 24V54h-10.4v-8.2c0-7.733-.734-14.267-2.2-19.6-1.467-5.467-4.134-9.667-8-12.6-3.867-2.933-9.334-4.4-16.4-4.4-7.734 0-13.667 1.6-17.8 4.8-4.134 3.2-6.934 7.667-8.4 13.4-1.467 5.733-2.2 12.4-2.2 20V119c0 8 .8 14.867 2.4 20.6 1.6 5.6 4.466 9.933 8.6 13 4.133 3.067 9.933 4.6 17.4 4.6 7.2 0 12.733-1.533 16.6-4.6 3.866-3.067 6.466-7.333 7.8-12.8 1.466-5.6 2.2-12.067 2.2-19.4v-9.8h10.4v8c0 9.2-1.067 17.4-3.2 24.6-2.134 7.2-5.867 12.867-11.2 17-5.334 4-12.867 6-22.6 6Zm73.251-2.2 34-162h12.6l34.2 162h-11l-8.4-44.8h-42l-8.6 44.8h-10.8Zm21-52.8h39l-19.6-96-19.4 96ZM638.622 164V2h10.8v162h-10.8Zm61.011 0V2h35.4c10.8 0 19.2 2.067 25.2 6.2s10.2 9.733 12.6 16.8c2.4 7.067 3.6 14.933 3.6 23.6v67.2c0 9.2-1.2 17.467-3.6 24.8-2.4 7.2-6.534 12.933-12.4 17.2-5.734 4.133-13.867 6.2-24.4 6.2h-36.4Zm10.8-8.6h25c8.8 0 15.333-1.867 19.6-5.6 4.266-3.733 7.066-8.667 8.4-14.8 1.333-6.267 2-13.067 2-20.4V49.4c0-7.867-.8-14.667-2.4-20.4-1.6-5.867-4.6-10.333-9-13.4-4.4-3.2-10.734-4.8-19-4.8h-24.6v144.6Zm112.32 8.6V2h56v8.8h-45v65h37v8.4h-37v71.2h45.6v8.6h-56.6Zm134.716 2.2c-10.667 0-18.867-2.2-24.6-6.6-5.6-4.4-9.467-10.267-11.6-17.6-2.134-7.467-3.2-15.667-3.2-24.6V48.6c0-9.333 1.133-17.6 3.4-24.8 2.266-7.333 6.266-13.067 12-17.2 5.733-4.267 13.733-6.4 24-6.4 9.466 0 16.866 1.867 22.2 5.6 5.333 3.733 9.133 9.067 11.4 16 2.266 6.8 3.4 14.8 3.4 24V54h-10.4v-8.2c0-7.733-.734-14.267-2.2-19.6-1.467-5.467-4.134-9.667-8-12.6-3.867-2.933-9.334-4.4-16.4-4.4-7.734 0-13.667 1.6-17.8 4.8-4.134 3.2-6.934 7.667-8.4 13.4-1.467 5.733-2.2 12.4-2.2 20V119c0 8 .8 14.867 2.4 20.6 1.6 5.6 4.466 9.933 8.6 13 4.133 3.067 9.933 4.6 17.4 4.6 7.2 0 12.733-1.533 16.6-4.6 3.866-3.067 6.466-7.333 7.8-12.8 1.466-5.6 2.2-12.067 2.2-19.4v-9.8h10.4v8c0 9.2-1.067 17.4-3.2 24.6-2.134 7.2-5.867 12.867-11.2 17-5.334 4-12.867 6-22.6 6Zm73.251-2.2 34-162h12.6l34.2 162h-11l-8.4-44.8h-42l-8.6 44.8h-10.8Zm21-52.8h39l-19.6-96-19.4 96Z" fill="#000"/></svg>