<svg id="Layer_1" data-name="Layer 1" xmlns="http://www.w3.org/2000/svg" viewBox="0 0 40 70.66">
  <defs>
    <style>
      .cls-1 {
        fill: #12183a;
      }
    </style>
  </defs>
  <title>triscaideca-black-logo</title>
  <g>
    <path class="cls-1" d="M34.82,22.56v-1.9a4.08,4.08,0,0,0-8.15,0v2.3a3.85,3.85,0,0,0,1,2.59,3.89,3.89,0,0,0-1,2.6v2.33a3.86,3.86,0,0,0,1.2,2.81,4.14,4.14,0,0,0,2.88,1.16h0a4,4,0,0,0,4.06-3.95v-1.9H32.08v1.9a1.34,1.34,0,0,1-2.67,0V28.11a1.27,1.27,0,0,1,1-1.21,1.33,1.33,0,0,0,1.22-1.43,1.31,1.31,0,0,0-1.2-1.34,1.25,1.25,0,0,1-1-1.21v-2.3a1.29,1.29,0,0,1,1.33-1.23,1.39,1.39,0,0,1,1,.37,1.17,1.17,0,0,1,.38.86v1.92h2.72Z"/>
    <path class="cls-1" d="M22.27,16.6H20a1.33,1.33,0,0,0-.93.38,1.36,1.36,0,0,0-.4,1A1.34,1.34,0,0,0,20,19.33h0.85l0,15h2.76l0-16.39A1.39,1.39,0,0,0,22.27,16.6Z"/>
    <path class="cls-1" d="M16.36,19a1.74,1.74,0,0,0,.26-1,1.17,1.17,0,0,0-1-1.33l-8.18,0V19.4H10.6l0.08,34.27h2.76L13.35,19.38H15.6A0.93,0.93,0,0,0,16.36,19Z"/>
    <rect class="cls-1" x="0.4" y="69.66" width="39.6" height="1"/>
    <rect class="cls-1" width="39.6" height="1"/>
  </g>
</svg>
